HIERARCHY
ROOT Hips
{
	OFFSET 53.728100 -11.228415 95.624603
	CHANNELS 6 Xposition Yposition Zposition Xrotation Yrotation Zrotation
	JOINT spine
	{
		OFFSET 0.000000 -0.458069 7.965683
		CHANNELS 3 Xrotation Yrotation Zrotation
		JOINT spine1
		{
			OFFSET 0.000000 -0.000001 10.243103
			CHANNELS 3 Xrotation Yrotation Zrotation
			JOINT spine2
			{
				OFFSET 0.000000 -0.000002 9.814751
				CHANNELS 3 Xrotation Yrotation Zrotation
				JOINT Neck
				{
					OFFSET 0.000000 -1.201384 25.198601
					CHANNELS 3 Xrotation Yrotation Zrotation
					JOINT Head
					{
						OFFSET 0.000000 -0.000002 7.613144
						CHANNELS 3 Xrotation Yrotation Zrotation
						End Site
						{
							OFFSET 0.000000 6.077327 18.428101
						}
					}
				}
				JOINT RightShoulder
				{
					OFFSET -4.132702 0.575449 10.599205
					CHANNELS 3 Xrotation Yrotation Zrotation
					JOINT RightArm
					{
						OFFSET 0.000000 -0.000002 13.901794
						CHANNELS 3 Xrotation Yrotation Zrotation
						JOINT RightArmRoll
						{
							OFFSET 0.000000 -0.000002 7.017883
							CHANNELS 3 Xrotation Yrotation Zrotation
							JOINT RightForeArm
							{
								OFFSET 0.000000 -0.000003 20.440598
								CHANNELS 3 Xrotation Yrotation Zrotation
								JOINT RightForeArmRoll
								{
									OFFSET 0.000000 -0.000001 7.875153
									CHANNELS 3 Xrotation Yrotation Zrotation
									JOINT RightHand
									{
										OFFSET 0.000000 -0.000003 15.803696
										CHANNELS 3 Xrotation Yrotation Zrotation
										End Site
										{
											OFFSET 0.000000 0.000000 0.100006
										}
									}
								}
							}
						}
					}
				}
				JOINT LeftShoulder
				{
					OFFSET 4.132702 0.575449 10.599205
					CHANNELS 3 Xrotation Yrotation Zrotation
					JOINT LeftArm
					{
						OFFSET 0.000000 -0.000002 13.901794
						CHANNELS 3 Xrotation Yrotation Zrotation
						JOINT LeftArmRoll
						{
							OFFSET 0.000000 -0.000002 7.017883
							CHANNELS 3 Xrotation Yrotation Zrotation
							JOINT LeftForeArm
							{
								OFFSET 0.000000 -0.000003 20.440598
								CHANNELS 3 Xrotation Yrotation Zrotation
								JOINT LeftForeArmRoll
								{
									OFFSET 0.000000 -0.000001 7.875153
									CHANNELS 3 Xrotation Yrotation Zrotation
									JOINT LeftHand
									{
										OFFSET 0.000000 -0.000003 15.803696
										CHANNELS 3 Xrotation Yrotation Zrotation
										End Site
										{
											OFFSET 0.000000 0.000000 0.100006
										}
									}
								}
							}
						}
					}
				}
			}
		}
	}
	JOINT RightUpLeg
	{
		OFFSET -7.060482 1.086100 -1.294701
		CHANNELS 3 Xrotation Yrotation Zrotation
		JOINT RightUpLegRoll
		{
			OFFSET 0.000000 -0.000003 18.530800
			CHANNELS 3 Xrotation Yrotation Zrotation
			JOINT RightLeg
			{
				OFFSET 0.000000 0.000004 -22.947601
				CHANNELS 3 Xrotation Yrotation Zrotation
				JOINT RightLegRoll
				{
					OFFSET 0.000000 -0.000004 23.022598
					CHANNELS 3 Xrotation Yrotation Zrotation
					JOINT RightFoot
					{
						OFFSET 0.000000 -0.000004 19.162506
						CHANNELS 3 Xrotation Yrotation Zrotation
						JOINT RightToeBase
						{
							OFFSET 0.000000 -0.000002 16.018799
							CHANNELS 3 Xrotation Yrotation Zrotation
							End Site
							{
								OFFSET 0.006790 0.894205 7.757812
							}
						}
					}
				}
			}
		}
	}
	JOINT LeftUpLeg
	{
		OFFSET 7.060482 1.086100 -1.294701
		CHANNELS 3 Xrotation Yrotation Zrotation
		JOINT LeftUpLegRoll
		{
			OFFSET 0.000000 -0.000003 18.530899
			CHANNELS 3 Xrotation Yrotation Zrotation
			JOINT LeftLeg
			{
				OFFSET 0.000000 -0.000004 22.947502
				CHANNELS 3 Xrotation Yrotation Zrotation
				JOINT LeftLegRoll
				{
					OFFSET 0.000000 -0.000004 23.235504
					CHANNELS 3 Xrotation Yrotation Zrotation
					JOINT LeftFoot
					{
						OFFSET 0.000000 -0.000003 18.949600
						CHANNELS 3 Xrotation Yrotation Zrotation
						JOINT LeftToeBase
						{
							OFFSET 0.000000 -0.000003 16.018799
							CHANNELS 3 Xrotation Yrotation Zrotation
							End Site
							{
								OFFSET -0.030430 0.894205 7.757812
							}
						}
					}
				}
			}
		}
	}
}
MOTION
Frames: 4
Frame Time: 0.041667
53.068996 -11.991217 95.588303 -4.802372 0.353777 1.973832 -1.369334 -0.147860 0.079753 1.283319 -0.315585 0.176152 2.928415 -0.313649 0.179831 22.861895 -0.229863 -2.194942 -2.284293 -1.209708 -2.109801 8.593672 -74.351185 7.463857 -55.124616 -110.853581 -25.138112 -0.000000 0.000000 -0.000000 -0.021749 2.804281 0.347467 0.000003 0.000008 -3.004699 -5.000152 -7.999961 0.000001 12.507983 72.114264 -12.060455 -54.244696 117.450403 17.774922 0.000000 -0.000000 -0.000000 -0.131659 -16.844662 -2.183269 -0.000004 -0.000011 3.118903 -5.000143 8.001336 0.000155 5.147336 -173.849707 -0.113266 -179.999991 0.000005 -1.275000 174.369743 -2.366534 -0.627236 -0.000005 0.000002 0.105025 70.069709 6.955363 1.885913 25.584509 -7.355207 0.187268 2.923166 172.129141 -0.961539 -0.000020 -0.000003 -1.172300 -6.807756 1.529000 0.410998 -0.000009 0.000004 0.003162 69.354888 -6.466946 -3.201283 25.456957 7.355613 -0.000001 
53.072296 -11.986219 95.584610 -4.791469 0.352502 1.963977 -1.369964 -0.147559 0.079552 1.280309 -0.313815 0.175697 2.925404 -0.311867 0.179363 22.830770 -0.215493 -2.196660 -2.273906 -1.218240 -2.110041 8.538138 -74.337805 7.406105 -55.046475 -110.821165 -24.980602 -0.000001 0.000000 0.000001 -0.023479 2.869301 0.354196 0.000001 0.000008 -3.004700 -5.000151 -7.999962 -0.000003 12.487828 72.128000 -12.036193 -54.414628 117.402660 17.714529 0.000002 0.000000 0.000001 -0.135434 -17.061258 -2.205774 -0.000002 -0.000013 3.115319 -5.000139 8.001337 0.000154 5.131847 -173.845595 -0.111167 -179.999991 0.000004 -1.275000 174.361561 -2.369491 -0.626872 -0.000006 0.000003 0.104942 70.075521 6.955287 1.885935 25.583293 -7.355210 0.185619 2.913801 172.133048 -0.957524 -0.000020 -0.000004 -1.172860 -6.811914 1.528130 0.410796 -0.000009 0.000005 0.003089 69.358843 -6.467503 -3.200655 25.456955 7.355612 -0.000001 
53.071095 -11.991817 95.589310 -4.780363 0.351312 1.954329 -1.370576 -0.147272 0.079351 1.277249 -0.312027 0.175269 2.922334 -0.310061 0.178925 22.798449 -0.201384 -2.198573 -2.261564 -1.227173 -2.110460 8.482629 -74.324623 7.348329 -54.964991 -110.790497 -24.820378 0.000001 0.000000 -0.000002 -0.025906 2.934521 0.360922 0.000004 0.000008 -3.004704 -5.000155 -7.999961 0.000002 12.468754 72.142090 -12.013035 -54.584338 117.357663 17.649675 0.000001 0.000001 -0.000001 -0.140338 -17.284554 -2.229435 -0.000002 -0.000013 3.111749 -5.000141 8.001335 0.000150 5.116021 -173.840458 -0.108910 -179.999991 0.000005 -1.275000 174.353023 -2.372448 -0.627521 -0.000005 0.000002 0.104845 70.081463 6.955288 1.885863 25.582091 -7.355210 0.183969 2.903714 172.135985 -0.953498 -0.000020 -0.000004 -1.173430 -6.816822 1.527192 0.410614 -0.000009 0.000005 0.003020 69.362996 -6.468032 -3.200210 25.456957 7.355614 -0.000002 
53.075294 -11.993716 95.583908 -4.769099 0.350179 1.944836 -1.371176 -0.146996 0.079150 1.274138 -0.310228 0.174861 2.919232 -0.308238 0.178505 22.765231 -0.187457 -2.200614 -2.247882 -1.236388 -2.110988 8.427196 -74.311625 7.290616 -54.881970 -110.760834 -24.659112 -0.000001 0.000000 -0.000002 -0.028818 2.999881 0.367647 0.000001 0.000008 -3.004699 -5.000151 -7.999962 0.000001 12.450447 72.156413 -11.990669 -54.754235 117.314223 17.582367 0.000002 0.000001 0.000003 -0.146026 -17.512550 -2.253942 -0.000002 -0.000012 3.108178 -5.000140 8.001335 0.000157 5.099946 -173.836306 -0.106697 -179.999991 0.000004 -1.275000 174.344171 -2.375388 -0.628181 -0.000005 0.000002 0.104738 70.087699 6.955189 1.885954 25.580974 -7.355207 0.182322 2.893117 172.139905 -0.949382 -0.000020 -0.000004 -1.174010 -6.822271 1.526182 0.410444 -0.000009 0.000005 0.002954 69.367333 -6.468508 -3.200044 25.456959 7.355613 -0.000002 
